<?xml version="1.0" encoding="iso-8859-1"?>
<!-- Generator: Adobe Illustrator 19.0.0, SVG Export Plug-In . SVG Version: 6.00 Build 0)  -->
<svg version="1.1" id="Capa_1" xmlns="http://www.w3.org/2000/svg" xmlns:xlink="http://www.w3.org/1999/xlink" x="0px" y="0px"
	 viewBox="0 0 486.553 486.553" style="enable-background:new 0 0 486.553 486.553;" xml:space="preserve">
<linearGradient id="SVGID_1_" gradientUnits="userSpaceOnUse" x1="346.953" y1="493.27" x2="346.953" y2="34.74" gradientTransform="matrix(1 0 0 -1 0 488.54)">
	<stop  offset="0" style="stop-color:#00EFD1"/>
	<stop  offset="1" style="stop-color:#00ACEA"/>
</linearGradient>
<path style="fill:url(#SVGID_1_);" d="M346.953,177.382c-24.937,0-45.153,20.216-45.153,45.153s20.216,45.153,45.153,45.153
	s45.153-20.216,45.153-45.153c0,0,0-0.001,0-0.001C392.105,197.597,371.89,177.383,346.953,177.382L346.953,177.382z
	 M324.403,249.646c-4.996,0.014-9.058-4.024-9.072-9.02s4.024-9.058,9.02-9.072c4.996-0.014,9.058,4.024,9.072,9.02
	C333.436,245.569,329.398,249.63,324.403,249.646z M355.973,227.046c-9.978-0.014-18.054-8.114-18.04-18.092
	s8.114-18.054,18.092-18.04c9.978,0.014,18.054,8.114,18.04,18.092c-0.008,9.97-8.098,18.046-18.068,18.038
	c-0.008,0-0.015,0-0.023,0L355.973,227.046z"/>
<g>
	
		<linearGradient id="SVGID_2_" gradientUnits="userSpaceOnUse" x1="139.594" y1="493.27" x2="139.594" y2="34.74" gradientTransform="matrix(1 0 0 -1 0 488.54)">
		<stop  offset="0" style="stop-color:#00EFD1"/>
		<stop  offset="1" style="stop-color:#00ACEA"/>
	</linearGradient>
	<path style="fill:url(#SVGID_2_);" d="M139.595,177.382c-24.937-0.001-45.153,20.215-45.154,45.152s20.215,45.153,45.152,45.154
		s45.153-20.215,45.154-45.152c0-0.001,0-0.001,0-0.002C184.745,197.598,164.531,177.384,139.595,177.382L139.595,177.382z
		 M117.045,249.646c-4.996,0.014-9.058-4.024-9.072-9.02c-0.014-4.996,4.024-9.058,9.02-9.072c4.996-0.014,9.058,4.024,9.072,9.02
		C126.078,245.57,122.04,249.631,117.045,249.646z M148.615,227.046c-9.978-0.014-18.054-8.114-18.04-18.092
		c0.014-9.978,8.114-18.054,18.092-18.04c9.978,0.014,18.054,8.114,18.04,18.092c-0.008,9.97-8.098,18.046-18.068,18.038
		c-0.008,0-0.016,0-0.024,0V227.046z"/>
	
		<linearGradient id="SVGID_3_" gradientUnits="userSpaceOnUse" x1="243.2764" y1="493.27" x2="243.2764" y2="34.74" gradientTransform="matrix(1 0 0 -1 0 488.54)">
		<stop  offset="0" style="stop-color:#00EFD1"/>
		<stop  offset="1" style="stop-color:#00ACEA"/>
	</linearGradient>
	<path style="fill:url(#SVGID_3_);" d="M407.974,64.233C309.094-26.726,155.199-20.306,64.24,78.574
		c-36.262,39.42-58.501,89.706-63.266,143.055C0.328,228.74,0,236.021,0,243.27c-0.006,134.355,108.905,243.276,243.26,243.282
		c64.528,0.003,126.414-25.632,172.04-71.263c45.771-45.523,71.428-107.465,71.252-172.019c0-7.243-0.327-14.519-0.973-21.623
		C480.278,161.325,452.594,105.171,407.974,64.233L407.974,64.233z M92.117,78.815C182.865-4.676,324.113,1.206,407.605,91.954
		c30.728,33.399,50.549,75.368,56.821,120.316h-19.852c-5.026-49-46.89-88.128-97.622-88.128s-92.595,39.128-97.62,88.128h-12.116
		c-5.025-49-46.889-88.128-97.621-88.128S46.999,163.27,41.974,212.27H22.122C29.235,161.002,53.985,113.814,92.117,78.815z
		 M425.081,222.535c0,43.149-34.979,78.128-78.128,78.128c-43.149,0-78.128-34.979-78.128-78.128
		c0-43.149,34.979-78.128,78.128-78.128C390.082,144.456,425.033,179.406,425.081,222.535L425.081,222.535z M217.722,222.535
		c0,43.149-34.979,78.128-78.128,78.128c-43.149,0-78.128-34.979-78.128-78.128c0-43.149,34.979-78.128,78.128-78.128
		c0,0,0.001,0,0.001,0C182.723,144.456,217.673,179.407,217.722,222.535L217.722,222.535z M243.274,466.548
		c-123.116,0-223.278-100.294-223.278-223.41c0-3.58,0.094-6.868,0.268-10.868h21.71c5.526,53.915,53.713,93.141,107.628,87.615
		c46.281-4.744,82.871-41.334,87.615-87.615h12.116c5.532,53.914,53.722,93.136,107.637,87.604
		c46.274-4.748,82.856-41.331,87.604-87.604h21.71c0.174,4,0.268,7.286,0.268,10.868
		C466.552,366.254,366.39,466.548,243.274,466.548L243.274,466.548z"/>
</g>
<g>
</g>
<g>
</g>
<g>
</g>
<g>
</g>
<g>
</g>
<g>
</g>
<g>
</g>
<g>
</g>
<g>
</g>
<g>
</g>
<g>
</g>
<g>
</g>
<g>
</g>
<g>
</g>
<g>
</g>
</svg>
